<mxfile host="Electron" agent="Mozilla/5.0 (X11; Linux x86_64) AppleWebKit/537.36 (KHTML, like Gecko) draw.io/27.0.9 Chrome/134.0.6998.205 Electron/35.4.0 Safari/537.36" version="27.0.9">
  <diagram name="Page-1" id="DBMVB7P6TTwMouOZ1Hrb">
    <mxGraphModel dx="1181" dy="688" grid="1" gridSize="10" guides="1" tooltips="1" connect="1" arrows="1" fold="1" page="1" pageScale="1" pageWidth="827" pageHeight="1169" math="0" shadow="0">
      <root>
        <mxCell id="0" />
        <mxCell id="1" parent="0" />
        <mxCell id="D3n_9I7dgjqksSmcOAMs-1" value="&lt;font style=&quot;font-size: 24px;&quot; face=&quot;Rubik&quot;&gt;DELAY&lt;/font&gt;" style="rounded=1;whiteSpace=wrap;html=1;strokeWidth=3;" vertex="1" parent="1">
          <mxGeometry x="220" y="270" width="120" height="60" as="geometry" />
        </mxCell>
        <mxCell id="D3n_9I7dgjqksSmcOAMs-2" value="&lt;font style=&quot;font-size: 24px;&quot; face=&quot;Rubik&quot;&gt;REVERB&lt;/font&gt;" style="rounded=1;whiteSpace=wrap;html=1;strokeWidth=3;" vertex="1" parent="1">
          <mxGeometry x="220" y="410" width="120" height="60" as="geometry" />
        </mxCell>
        <mxCell id="D3n_9I7dgjqksSmcOAMs-3" value="" style="pointerEvents=1;verticalLabelPosition=bottom;shadow=0;dashed=0;align=center;html=1;verticalAlign=top;shape=mxgraph.electrical.resistors.potentiometer_1;strokeWidth=3;rotation=-90;" vertex="1" parent="1">
          <mxGeometry x="384" y="350" width="100" height="40" as="geometry" />
        </mxCell>
        <mxCell id="D3n_9I7dgjqksSmcOAMs-4" style="edgeStyle=orthogonalEdgeStyle;rounded=1;orthogonalLoop=1;jettySize=auto;html=1;exitX=1;exitY=0.5;exitDx=0;exitDy=0;entryX=1;entryY=0.25;entryDx=0;entryDy=0;entryPerimeter=0;endArrow=none;startFill=0;strokeWidth=3;curved=0;" edge="1" parent="1" source="D3n_9I7dgjqksSmcOAMs-1" target="D3n_9I7dgjqksSmcOAMs-3">
          <mxGeometry relative="1" as="geometry" />
        </mxCell>
        <mxCell id="D3n_9I7dgjqksSmcOAMs-5" style="edgeStyle=orthogonalEdgeStyle;rounded=1;orthogonalLoop=1;jettySize=auto;html=1;exitX=1;exitY=0.5;exitDx=0;exitDy=0;entryX=0;entryY=0.25;entryDx=0;entryDy=0;entryPerimeter=0;endArrow=none;startFill=0;strokeWidth=3;curved=0;" edge="1" parent="1" source="D3n_9I7dgjqksSmcOAMs-2" target="D3n_9I7dgjqksSmcOAMs-3">
          <mxGeometry relative="1" as="geometry" />
        </mxCell>
        <mxCell id="D3n_9I7dgjqksSmcOAMs-7" style="edgeStyle=orthogonalEdgeStyle;rounded=1;orthogonalLoop=1;jettySize=auto;html=1;exitX=1;exitY=0.5;exitDx=0;exitDy=0;entryX=0;entryY=0.5;entryDx=0;entryDy=0;strokeWidth=3;curved=0;" edge="1" parent="1" source="D3n_9I7dgjqksSmcOAMs-6" target="D3n_9I7dgjqksSmcOAMs-1">
          <mxGeometry relative="1" as="geometry" />
        </mxCell>
        <mxCell id="D3n_9I7dgjqksSmcOAMs-8" style="edgeStyle=orthogonalEdgeStyle;rounded=1;orthogonalLoop=1;jettySize=auto;html=1;exitX=1;exitY=0.5;exitDx=0;exitDy=0;entryX=0;entryY=0.5;entryDx=0;entryDy=0;strokeWidth=3;curved=0;" edge="1" parent="1" source="D3n_9I7dgjqksSmcOAMs-6" target="D3n_9I7dgjqksSmcOAMs-2">
          <mxGeometry relative="1" as="geometry" />
        </mxCell>
        <mxCell id="D3n_9I7dgjqksSmcOAMs-6" value="&lt;font style=&quot;font-size: 24px;&quot; face=&quot;Rubik&quot;&gt;INPUT&lt;/font&gt;" style="rounded=1;whiteSpace=wrap;html=1;strokeWidth=3;" vertex="1" parent="1">
          <mxGeometry x="80" y="340" width="80" height="60" as="geometry" />
        </mxCell>
        <mxCell id="D3n_9I7dgjqksSmcOAMs-9" value="&lt;font style=&quot;font-size: 24px;&quot; face=&quot;Rubik&quot;&gt;OUTPUT&lt;/font&gt;" style="rounded=1;whiteSpace=wrap;html=1;strokeWidth=3;" vertex="1" parent="1">
          <mxGeometry x="700" y="340" width="110" height="60" as="geometry" />
        </mxCell>
        <mxCell id="D3n_9I7dgjqksSmcOAMs-13" style="edgeStyle=orthogonalEdgeStyle;rounded=1;orthogonalLoop=1;jettySize=auto;html=1;exitX=0.5;exitY=1;exitDx=0;exitDy=0;exitPerimeter=0;entryX=0;entryY=0.5;entryDx=0;entryDy=0;curved=0;strokeWidth=3;" edge="1" parent="1" source="D3n_9I7dgjqksSmcOAMs-10" target="D3n_9I7dgjqksSmcOAMs-14">
          <mxGeometry relative="1" as="geometry">
            <Array as="points">
              <mxPoint x="520" y="270" />
              <mxPoint x="520" y="370" />
            </Array>
          </mxGeometry>
        </mxCell>
        <mxCell id="D3n_9I7dgjqksSmcOAMs-10" value="" style="pointerEvents=1;verticalLabelPosition=bottom;shadow=0;dashed=0;align=center;html=1;verticalAlign=top;shape=mxgraph.electrical.resistors.potentiometer_1;strokeWidth=3;rotation=-90;" vertex="1" parent="1">
          <mxGeometry x="440" y="250" width="100" height="40" as="geometry" />
        </mxCell>
        <mxCell id="D3n_9I7dgjqksSmcOAMs-11" style="edgeStyle=orthogonalEdgeStyle;rounded=1;orthogonalLoop=1;jettySize=auto;html=1;exitX=1;exitY=0.5;exitDx=0;exitDy=0;entryX=1;entryY=0.25;entryDx=0;entryDy=0;entryPerimeter=0;strokeWidth=3;curved=0;endArrow=none;startFill=0;" edge="1" parent="1" source="D3n_9I7dgjqksSmcOAMs-6" target="D3n_9I7dgjqksSmcOAMs-10">
          <mxGeometry relative="1" as="geometry">
            <Array as="points">
              <mxPoint x="190" y="370" />
              <mxPoint x="190" y="200" />
              <mxPoint x="480" y="200" />
            </Array>
          </mxGeometry>
        </mxCell>
        <mxCell id="D3n_9I7dgjqksSmcOAMs-16" style="edgeStyle=orthogonalEdgeStyle;rounded=0;orthogonalLoop=1;jettySize=auto;html=1;exitX=1;exitY=0.5;exitDx=0;exitDy=0;entryX=0;entryY=0.5;entryDx=0;entryDy=0;strokeWidth=3;" edge="1" parent="1" source="D3n_9I7dgjqksSmcOAMs-14" target="D3n_9I7dgjqksSmcOAMs-9">
          <mxGeometry relative="1" as="geometry" />
        </mxCell>
        <mxCell id="D3n_9I7dgjqksSmcOAMs-14" value="&lt;font style=&quot;font-size: 24px;&quot; face=&quot;Rubik&quot;&gt;PHASER&lt;/font&gt;" style="rounded=1;whiteSpace=wrap;html=1;strokeWidth=3;" vertex="1" parent="1">
          <mxGeometry x="550" y="340" width="120" height="60" as="geometry" />
        </mxCell>
        <mxCell id="D3n_9I7dgjqksSmcOAMs-15" style="edgeStyle=orthogonalEdgeStyle;rounded=1;orthogonalLoop=1;jettySize=auto;html=1;exitX=0.5;exitY=1;exitDx=0;exitDy=0;exitPerimeter=0;entryX=0;entryY=0.25;entryDx=0;entryDy=0;entryPerimeter=0;curved=0;strokeWidth=3;endArrow=none;startFill=0;" edge="1" parent="1" source="D3n_9I7dgjqksSmcOAMs-3" target="D3n_9I7dgjqksSmcOAMs-10">
          <mxGeometry relative="1" as="geometry" />
        </mxCell>
        <mxCell id="D3n_9I7dgjqksSmcOAMs-17" value="Delay/Reverb&lt;div&gt;MIX&lt;/div&gt;" style="text;html=1;align=center;verticalAlign=middle;whiteSpace=wrap;rounded=0;fontFamily=Rubik;fontSize=15;" vertex="1" parent="1">
          <mxGeometry x="320" y="355" width="86" height="30" as="geometry" />
        </mxCell>
        <mxCell id="D3n_9I7dgjqksSmcOAMs-18" value="Dry/Wet&lt;div&gt;MIX&lt;/div&gt;" style="text;html=1;align=center;verticalAlign=middle;whiteSpace=wrap;rounded=0;fontFamily=Rubik;fontSize=15;" vertex="1" parent="1">
          <mxGeometry x="480" y="220" width="86" height="30" as="geometry" />
        </mxCell>
      </root>
    </mxGraphModel>
  </diagram>
</mxfile>
